<svg width="320" height="40" fill="none" xmlns="http://www.w3.org/2000/svg"><path d="M31.249 17.696V8.445H4.444v19.83h17.71" stroke="#fff" stroke-miterlimit="10"/><path d="M29.748 31.228a5.808 5.808 0 100-11.615 5.808 5.808 0 000 11.615z" stroke="#fff" stroke-miterlimit="10"/><path d="M27.701 24.766a.889.889 0 100-1.778.889.889 0 000 1.778zm4.193 3.054a.889.889 0 100-1.779.889.889 0 000 1.778z" fill="#fff"/><path d="M4.444 11.804H31.25M4.444 15.396H31.25M7.572 24.38h5.16m15.805 3.274l2.582-4.467m62.514 9.757H74.27V4.274h22.804v12.34m-18.054-6.57h13.302M79.02 19.597h6.65m-6.65-4.777h13.302" stroke="#fff" stroke-miterlimit="10"/><path d="M91.578 18.93l3.013 3.027-2.55 2.565-3.01-3.03a4.591 4.591 0 00-.186 2.758 4.57 4.57 0 001.43 2.36 4.517 4.517 0 005.212.53l8.249 8.288 1.697-1.707-8.239-8.292a4.588 4.588 0 00-.523-5.248 4.534 4.534 0 00-2.349-1.44 4.515 4.515 0 00-2.744.19v0zm76.594 8.326l1.789 1.789 3.034-3.034" stroke="#fff" stroke-miterlimit="10"/><path d="M170.538 33.517c-.06.039-.089.039-.119.039s-.089-.04-.119-.04c-.149-.078-.327-.156-.595-.313a8.652 8.652 0 01-1.784-1.41c-1.279-1.37-2.588-3.682-2.588-7.442l5.056-1.684 5.056 1.684c0 3.8-1.279 6.071-2.588 7.442a7.479 7.479 0 01-1.784 1.41c-.208.157-.416.235-.535.313z" stroke="#fff" stroke-miterlimit="10"/><path d="M164.027 31.445h-20.249V12.777l13.333-8 13.333 8v7.124" stroke="#fff" stroke-miterlimit="10"/><path d="M160.68 20.236h-7.138v11.209h7.138v-11.21zm82.431-13.347h-26.667v26.667h26.667V6.889z" stroke="#fff" stroke-miterlimit="10"/><path d="M243.111 33.556h-15.356v-9.174l5.783-2.582v-3.778l-5.783-2.577V6.888h15.356v26.667zm-15.493-23.48l3.186-3.187m.009 9.76l9.72-9.72m-12.778 22.547l15.543-15.543m-9.805 19.574l9.573-9.574m66.454-1.92h-7.138v11.21h7.138v-11.21z" stroke="#fff" stroke-miterlimit="10"/><path d="M311.973 33.222h-19.355V14.556l13.329-8 13.337 8v18.666h-7.311zm-31.306-5.257l8.075-8.076-8.075-8.075" stroke="#fff" stroke-miterlimit="10"/><path d="M284.231 11.813h-3.564v3.565m3.564 1.973h-3.564v3.565m3.808.244l-3.808-3.809m0 16.151l8.075-8.075L287.315 24" stroke="#fff" stroke-miterlimit="10"/></svg>