<svg width="24" height="24" fill="none" xmlns="http://www.w3.org/2000/svg"><path fill-rule="evenodd" clip-rule="evenodd" d="M11.674 6.536a1.69 1.69 0 00-1.688 1.688 1.69 1.69 0 002.88 1.193 1.69 1.69 0 00.496-1.193 1.69 1.69 0 00-1.688-1.688zm0 5.764a4.08 4.08 0 01-4.076-4.076 4.08 4.08 0 014.076-4.077 4.08 4.08 0 014.077 4.077 4.08 4.08 0 01-4.077 4.075zm-1.649 3.324a7.636 7.636 0 01-2.367-.98 1.195 1.195 0 011.272-2.021 5.175 5.175 0 005.489 0 1.194 1.194 0 111.272 2.022 7.65 7.65 0 01-2.367.98l2.279 2.28a1.191 1.191 0 01-.001 1.688 1.194 1.194 0 01-1.689 0l-2.238-2.24-2.24 2.24a1.195 1.195 0 01-1.689-1.69l2.279-2.278z" fill="#fff"/></svg>