<svg width="40" height="40" fill="none" xmlns="http://www.w3.org/2000/svg"><path d="M28.172 27.256l1.79 1.789 3.033-3.034" stroke="#fff" stroke-miterlimit="10"/><path d="M30.538 33.517c-.06.039-.09.039-.12.039-.029 0-.088-.04-.118-.04-.149-.078-.327-.156-.595-.313a8.66 8.66 0 01-1.784-1.41c-1.279-1.37-2.587-3.682-2.587-7.442l5.055-1.684 5.056 1.684c0 3.8-1.28 6.071-2.588 7.442a7.487 7.487 0 01-1.784 1.41c-.208.157-.416.235-.535.313z" stroke="#fff" stroke-miterlimit="10"/><path d="M24.027 31.445H3.777V12.777l13.334-8 13.334 8v7.124" stroke="#fff" stroke-miterlimit="10"/><path d="M20.68 20.236h-7.137v11.209h7.137v-11.21z" stroke="#fff" stroke-miterlimit="10"/></svg>