<svg width="40" height="40" fill="none" xmlns="http://www.w3.org/2000/svg"><path d="M23.633 32.944H4.27V4.274h22.804v12.34M9.02 10.044h13.302M9.02 19.597h6.65M9.02 14.82h13.302" stroke="#fff" stroke-miterlimit="10"/><path d="M21.578 18.93l3.013 3.027-2.55 2.565-3.01-3.03a4.591 4.591 0 00-.186 2.758 4.57 4.57 0 001.43 2.36 4.517 4.517 0 005.212.53l8.249 8.288 1.697-1.707-8.239-8.292a4.588 4.588 0 00-.522-5.248 4.534 4.534 0 00-2.35-1.44 4.515 4.515 0 00-2.744.19v0z" stroke="#fff" stroke-miterlimit="10"/></svg>